<?xml version="1.0" encoding="utf-8"?>
<!-- Generator: Adobe Illustrator 16.0.0, SVG Export Plug-In . SVG Version: 6.00 Build 0)  -->
<!DOCTYPE svg PUBLIC "-//W3C//DTD SVG 1.1//EN" "http://www.w3.org/Graphics/SVG/1.1/DTD/svg11.dtd">
<svg version="1.1" id="Layer_1" xmlns="http://www.w3.org/2000/svg" xmlns:xlink="http://www.w3.org/1999/xlink" x="0px" y="0px"
	 width="109px" height="55.2px" viewBox="0 0 109 55.2" enable-background="new 0 0 109 55.2" xml:space="preserve">
<g>
	<path fill-rule="evenodd" clip-rule="evenodd" fill="#FFFFFF" d="M13.1,27.4H8.3H0.9l0,0C0,27.4,0,27.4,0,28l0,0v24.5l0,0
		c0,0,0,0,0,0l0,0v0l0,0c0,0.1,0.2,0.5,0.7,0.5c0.5,0,5.4,0,5.9,0c0.6,0,0.6,0,0.6-0.5l0,0v-4.9l0,0c0-0.7,0-0.8,0.7-0.8l0,0h0.5
		h4.8l0,0c2.8-0.1,3.5-0.8,3.5-4l0,0V30.7l0,0C16.6,28,15.9,27.4,13.1,27.4L13.1,27.4L13.1,27.4L13.1,27.4z M9.5,42.6
		c0,0.8-0.6,1.1-1.2,1.1c-0.6,0-1.2-0.4-1.2-1.2l0,0V31.3l0,0c0-0.8,0.6-1.2,1.2-1.2s1.2,0.4,1.2,1.2l0,0V42.6L9.5,42.6L9.5,42.6z"
		/>
	<path fill-rule="evenodd" clip-rule="evenodd" fill="#FFFFFF" d="M35.8,28c0-0.6-0.1-0.4-0.7-0.6l0,0h-5.8l0,0
		c-0.6,0-0.6,0-0.6,0.6l0,0l0,20.3l0,0c0,2-2.3,1.9-2.3,0l0,0V28l0,0c0-0.6,0-0.6-0.6-0.6l0,0h-6.1l0,0c-0.7,0-0.7,0-0.7,0.6l0,0
		v21.4l0,0c0,3.2,0.7,3.7,2.6,3.7l0,0h11.3l0,0c2.2,0,2.9-0.6,2.9-3.5l0,0V28L35.8,28L35.8,28z"/>
	<path fill-rule="evenodd" clip-rule="evenodd" fill="#FFFFFF" d="M61.1,27.4H41l0,0c-2.4,0-3.1,0.6-3.1,2.9l0,0v22.3l0,0
		c0,0.5,0,0.5,0.7,0.5l0,0h5.6l0,0c0.8,0,0.8,0,0.8-0.5l0,0v-21l0,0c0-1.8,2.2-2,2.2,0l0,0v21l0,0c0,0.5,0,0.5,0.8,0.5l0,0h5.6l0,0
		c0.7,0,0.7,0,0.7-0.5l0,0v-21l0,0c0-1.7,2.2-1.8,2.2,0l0,0v21l0,0c0,0.5,0,0.5,0.7,0.5l0,0h5.8l0,0c0.6,0,0.6,0,0.6-0.5l0,0V30.2
		l0,0C63.8,28,63.1,27.4,61.1,27.4L61.1,27.4L61.1,27.4L61.1,27.4z"/>
	<path fill-rule="evenodd" clip-rule="evenodd" fill="#FFFFFF" d="M80.6,27.4h-5.8h-5.6l0,0c-1.9,0-2.7,0.6-2.7,2.8l0,0v22.4l0,0
		c0,0.5,0,0.5,0.8,0.5l0,0h5.6l0,0c0.7,0,0.7,0,0.7-0.5l0,0v-5l0,0c0.1-0.8,0.6-1.2,1.1-1.2c0.6,0,1.1,0.4,1.1,1.3l0,0v4.9l0,0
		c0,0.5,0,0.5,0.7,0.5l0,0h5.8l0,0c0.6,0,0.6,0,0.6-0.5l0,0V30.2l0,0C83,28,82.4,27.4,80.6,27.4L80.6,27.4L80.6,27.4L80.6,27.4z
		 M75.9,42.6c0,0.7-0.6,1-1.1,1c-0.6,0-1.1-0.3-1.1-1l0,0v-11l0,0c0-0.8,0.6-1.1,1.1-1.1c0.6,0,1.1,0.4,1.1,1.1l0,0V42.6L75.9,42.6
		L75.9,42.6z"/>
	<path fill-rule="evenodd" clip-rule="evenodd" fill="#FFFFFF" d="M89.2,49.1C89.2,49.1,89.2,49.1,89.2,49.1c-1.7,0-3.1,1.4-3.1,3.1
		c0,1.7,1.4,3.1,3.1,3.1c0,0,0,0,0.1,0c1.7,0,3-1.4,3-3.1C92.3,50.5,90.9,49.1,89.2,49.1L89.2,49.1L89.2,49.1L89.2,49.1z M91.7,52.4
		c-0.2,1.3-1.2,2.2-2.4,2.2c-0.3,0-0.7-0.1-1-0.2c-1-0.5-1.6-1.4-1.5-2.5c0.2-1.4,1.3-2.3,2.5-2.2c0.7,0,1.4,0.3,1.9,0.9
		C91.5,51.2,91.7,51.7,91.7,52.4L91.7,52.4L91.7,52.4L91.7,52.4z"/>
	<path fill-rule="evenodd" clip-rule="evenodd" fill="#FFFFFF" d="M90.2,52.2c0.2-0.2,0.3-0.5,0.3-0.8c0-0.3-0.1-0.6-0.4-0.7
		c-0.2-0.2-0.6-0.3-0.9-0.3c0,0-0.1,0-0.1,0l0,0h-1.2l0,3.7h0.6l0-1.4H89l0.3,0.4l0.8,1h0.6l-1.1-1.5l0,0
		C89.7,52.6,90,52.4,90.2,52.2L90.2,52.2L90.2,52.2L90.2,52.2z M89.1,52.1h-0.6l0-1.4h0.6l0,0c0.1,0,0.1,0,0.1,0
		c0.2,0,0.4,0.1,0.5,0.2c0.2,0.1,0.3,0.3,0.3,0.5c0,0.2-0.1,0.4-0.3,0.5c-0.1,0.1-0.3,0.2-0.5,0.2C89.2,52.1,89.2,52.1,89.1,52.1
		L89.1,52.1L89.1,52.1L89.1,52.1z"/>
	<path fill-rule="evenodd" clip-rule="evenodd" fill="#FFFFFF" d="M108.6,1.2c-0.5-0.9-1.7-0.6-3.1,0.1c-1.8,0.8-5.1,4.4-5.9,6.4
		c-0.7,2.9-2.4,5.6-5.1,8.5c-2.7,2.2-7.5,1.3-10.3-0.4c-0.2,0-11.6-8.9-11.6-8.9c-4.1-3.2-7-4.6-10.4-5.1c-0.2-0.1-0.3-0.3-0.4-0.4
		c-0.5-1.2-0.6-1.1-1-1.4c-0.5,0.3-0.8,0.5-1.2,0.7c-0.2,0-0.2,0-0.4-0.1c-0.3-0.1-0.6-0.4-0.9-0.4C58,0.3,57.7,1,57.2,1.7
		c0,0-0.8,0.7-1.5,1.3c-0.3,0.2-0.3,0.6-0.5,0.8c-0.4,0.4-0.8,1.1-0.9,1.1c-0.2,0.5-0.2,0.9,0.1,1.1c0,0.5,0.3,0.7,0.4,0.8
		C54.8,7,54.8,7.1,55,7.2c0.2,0.1,0.4,0.1,0.6,0.2c1.1,1,1.6,1,2.8,0.8c2.2,0.2,2,0.9,2,2c-0.1,0.2-0.2,0.2-0.3,0.2
		c-1,0-2-0.2-3-0.2c-2.2,0.2-4,0.6-3.9,3.2c0.1,1,2,2.4,3,0.5c0.1-0.9,0.9-0.5,1.5-0.3c3.9,1.7,7,2.5,9,0.8c0.6-0.8,1-0.2,1.6,0.2
		c3.1,3.7,7.6,6.1,14.5,6.2c2.3,0.6,4,1.5,4.9,3.8c2.1,5.5,4.8,9.9,8.8,12.2c-0.3,3.4-0.2,6.3,3.3,7c0.9-0.7-0.4-1.9,0.7-4.4
		c-0.1-1.1-1.1-2-1.4-4.2c-4.1-3.3-2.3-4.7-2.9-6.9c-0.1-3.2-0.8-5.7-2.1-8.2c-0.2-0.4,0.1-0.7,0.5-0.9c2.3-1.7,3.5-3.4,4.1-5
		c0.8-2.9,2.3-5.2,4.3-6.8c1.7-1.4,3.4-1.8,5.2-3C109.3,2.6,109.1,2.1,108.6,1.2L108.6,1.2L108.6,1.2L108.6,1.2z"/>
</g>
</svg>
